<?xml version="1.0" encoding="UTF-8" standalone="no"?>
<!-- Created with Inkscape (http://www.inkscape.org/) -->

<svg
   xmlns:dc="http://purl.org/dc/elements/1.1/"
   xmlns:cc="http://creativecommons.org/ns#"
   xmlns:rdf="http://www.w3.org/1999/02/22-rdf-syntax-ns#"
   xmlns:svg="http://www.w3.org/2000/svg"
   xmlns="http://www.w3.org/2000/svg"
   xmlns:xlink="http://www.w3.org/1999/xlink"
   xmlns:sodipodi="http://sodipodi.sourceforge.net/DTD/sodipodi-0.dtd"
   xmlns:inkscape="http://www.inkscape.org/namespaces/inkscape"
   width="70"
   height="70"
   viewBox="0 0 70 70"
   id="svg84822"
   version="1.1"
   inkscape:version="0.91 r13865"
   onload="var src; if (document.documentURI) src = document.documentURI; else if (this.getSrc) src = this.getSrc(); else src = document.location.href + ''; try {parent.preload.load(src);}catch(e) {}"
   sodipodi:docname="duct1_pressure.svg">
  <defs
     id="defs84824">
    <clipPath
       id="clipPath72980-4-5-7"
       clipPathUnits="userSpaceOnUse">
      <path
         inkscape:connector-curvature="0"
         id="path72982-5-2-7"
         d="m 3534.64,1545.28 c 0,-161.8 -131.17,-292.98 -292.98,-292.98 -161.81,0 -292.98,131.18 -292.98,292.98 0,161.81 131.17,292.98 292.98,292.98 161.81,0 292.98,-131.17 292.98,-292.98 z m -292.98,252.98 c -139.72,0 -252.98,-113.26 -252.98,-252.98 0,-139.71 113.26,-252.98 252.98,-252.98 139.72,0 252.98,113.27 252.98,252.98 0,139.72 -113.26,252.98 -252.98,252.98" />
    </clipPath>
    <linearGradient
       inkscape:collect="always"
       xlink:href="#linearGradient72984"
       id="linearGradient78713"
       gradientUnits="userSpaceOnUse"
       gradientTransform="matrix(0,-505.974,-625.957,0,3554.64,1798.24)"
       spreadMethod="pad"
       x1="0.0056179999"
       y1="0"
       x2="1"
       y2="0" />
    <linearGradient
       id="linearGradient72984"
       spreadMethod="pad"
       gradientTransform="matrix(0,-505.974,-625.957,0,3554.64,1798.24)"
       gradientUnits="userSpaceOnUse"
       y2="0"
       x2="1"
       y1="0"
       x1="0.0056179999">
      <stop
         id="stop72986"
         offset="0"
         style="stop-opacity:1;stop-color:#f2fbfe" />
      <stop
         id="stop72988"
         offset="1"
         style="stop-opacity:1;stop-color:#1a1b21" />
    </linearGradient>
  </defs>
  <sodipodi:namedview
     id="base"
     pagecolor="#ffffff"
     bordercolor="#666666"
     borderopacity="1.0"
     inkscape:pageopacity="0.0"
     inkscape:pageshadow="2"
     inkscape:zoom="3.959798"
     inkscape:cx="42.797616"
     inkscape:cy="26.925519"
     inkscape:document-units="px"
     inkscape:current-layer="layer1"
     showgrid="false"
     units="px"
     inkscape:window-width="1916"
     inkscape:window-height="839"
     inkscape:window-x="-8"
     inkscape:window-y="-8"
     inkscape:window-maximized="1" />
  <metadata
     id="metadata84827">
    <rdf:RDF>
      <cc:Work
         rdf:about="">
        <dc:format>image/svg+xml</dc:format>
        <dc:type
           rdf:resource="http://purl.org/dc/dcmitype/StillImage" />
        <dc:title></dc:title>
      </cc:Work>
    </rdf:RDF>
  </metadata>
  <g
     inkscape:label="Layer 1"
     inkscape:groupmode="layer"
     id="layer1"
     transform="translate(0,-982.36219)">
    <g
       transform="matrix(0.11196894,0,0,-0.1119689,-328.71007,1190.6977)"
       id="g72976-5-9-1">
      <g
         id="g72978-0-5-3"
         clip-path="url(#clipPath72980-4-5-7)">
        <path
           d="m 3534.64,1545.28 c 0,-161.8 -131.17,-292.98 -292.98,-292.98 -161.81,0 -292.98,131.18 -292.98,292.98 0,161.81 131.17,292.98 292.98,292.98 161.81,0 292.98,-131.17 292.98,-292.98 z m -292.98,252.98 c -139.72,0 -252.98,-113.26 -252.98,-252.98 0,-139.71 113.26,-252.98 252.98,-252.98 139.72,0 252.98,113.27 252.98,252.98 0,139.72 -113.26,252.98 -252.98,252.98"
           style="fill:url(#linearGradient78713);fill-opacity:1;fill-rule:nonzero;stroke:none"
           id="path72990-6-4-6"
           inkscape:connector-curvature="0" />
      </g>
    </g>
    <path
       d="m 67.059747,1017.6744 c 0,18.1165 -14.687165,32.8046 -32.804659,32.8046 -18.117698,0 -32.8046575,-14.6881 -32.8046575,-32.8046 0,-18.11772 14.6869595,-32.80468 32.8046575,-32.80468 18.117494,0 32.804659,14.68696 32.804659,32.80468 z M 34.255088,989.34848 c -15.644432,0 -28.3258976,12.68152 -28.3258976,28.32592 0,15.6431 12.6814656,28.3259 28.3258976,28.3259 15.644177,0 28.325899,-12.6828 28.325899,-28.3259 0,-15.6444 -12.681722,-28.32592 -28.325899,-28.32592 z"
       style="fill:none;stroke:#1a1b21;stroke-width:1.11968935;stroke-linecap:butt;stroke-linejoin:miter;stroke-miterlimit:4;stroke-dasharray:none;stroke-opacity:1"
       id="path72992-9-5-9"
       inkscape:connector-curvature="0" />
    <path
       d="m 34.255088,989.34848 c -15.644432,0 -28.3258976,12.68152 -28.3258976,28.32592 0,15.6431 12.6814656,28.3259 28.3258976,28.3259 15.644177,0 28.325899,-12.6828 28.325899,-28.3259 0,-15.6444 -12.681722,-28.32592 -28.325899,-28.32592"
       style="fill:#ffffff;fill-opacity:1;fill-rule:nonzero;stroke:none"
       id="path72994-8-8-1"
       inkscape:connector-curvature="0" />
    <path
       d="m 34.255088,989.34848 c -15.644432,0 -28.3258976,12.68152 -28.3258976,28.32592 0,15.6431 12.6814656,28.3259 28.3258976,28.3259 15.644177,0 28.325899,-12.6828 28.325899,-28.3259 0,-15.6444 -12.681722,-28.32592 -28.325899,-28.32592 z"
       style="fill:none;stroke:#1a1b21;stroke-width:1.11968935;stroke-linecap:butt;stroke-linejoin:miter;stroke-miterlimit:4;stroke-dasharray:none;stroke-opacity:1"
       id="path72996-3-4-2"
       inkscape:connector-curvature="0" />
    <path
       d="m 37.044009,1015.9497 -15.696937,24.0069 11.720103,-26.1791 3.976834,2.1722 z"
       style="fill:#231f20;fill-opacity:1;fill-rule:nonzero;stroke:none"
       id="path72998-1-0-3"
       inkscape:connector-curvature="0"
       inkscape:label="{&quot;attr&quot;:&quot;rotate&quot;,&quot;max&quot;:100,&quot;min&quot;:0,&quot;tag&quot;:&quot;main_duct1_pressure&quot;}"
       inkscape:transform-center-x="5.2661149"
       inkscape:transform-center-y="11.181873" />
    <path
       d="m 22.867599,1033.0286 c 0.02568,-0.2542 0.06728,-0.4791 0.147912,-0.6751 0.08371,-0.1962 0.207488,-0.3513 0.372862,-0.4704 0.164347,-0.1166 0.395973,-0.1757 0.690719,-0.1757 0.242411,0 0.443223,0.031 0.601355,0.1043 0.158698,0.068 0.285553,0.1792 0.380566,0.3323 0.09655,0.1525 0.161779,0.3513 0.201838,0.5956 0.04109,0.245 0.05649,0.542 0.05649,0.8935 0,0.2758 -0.02568,0.5397 -0.02568,0.7939 -0.02568,0.2532 -0.06728,0.4782 -0.147912,0.6741 -0.08371,0.1962 -0.207488,0.3503 -0.372862,0.4622 -0.164347,0.112 -0.396487,0.168 -0.69077,0.168 -0.239844,0 -0.437574,-0.031 -0.599199,-0.095 -0.161778,-0.063 -0.287607,-0.1711 -0.38262,-0.3246 -0.09655,-0.1536 -0.161778,-0.3513 -0.201838,-0.5968 -0.03595,-0.244 -0.05649,-0.5419 -0.05649,-0.8913 0,-0.2768 0.02568,-0.5419 0.02568,-0.795 z m 0.79626,1.5822 c 0.02568,0.1582 0.03595,0.2845 0.06985,0.3749 0.03082,0.091 0.07806,0.1536 0.131992,0.188 0.05649,0.031 0.129423,0.051 0.212623,0.051 0.08885,0 0.161779,-0.026 0.218273,-0.065 0.0565,-0.041 0.09964,-0.1166 0.131992,-0.2183 0.03082,-0.1027 0.05393,-0.2398 0.06985,-0.4119 0.02568,-0.171 0.02568,-0.3841 0.02568,-0.6382 l 0,-0.4309 c 0,-0.2511 -0.02568,-0.4555 -0.02568,-0.6147 -0.02568,-0.1582 -0.03595,-0.2835 -0.06985,-0.3739 -0.03595,-0.092 -0.08063,-0.1546 -0.134559,-0.188 -0.05649,-0.031 -0.126342,-0.051 -0.212624,-0.051 -0.08885,0 -0.161779,0.02 -0.218273,0.063 -0.0565,0.041 -0.09964,0.1165 -0.131991,0.2193 -0.03082,0.1016 -0.05136,0.2398 -0.06728,0.4108 -0.02568,0.1721 -0.02568,0.3842 -0.02568,0.6382 l 0,0.4325 c 0,0.2501 0.02568,0.4545 0.02568,0.6136"
       style="fill:#231f20;fill-opacity:1;fill-rule:nonzero;stroke:none"
       id="path73000-8-3-1"
       inkscape:connector-curvature="0" />
    <path
       d="m 40.739034,1032.8708 -0.789482,0 0,-0.5252 0.07242,0 c 0.26655,0 0.479174,-0.051 0.634995,-0.1499 0.153562,-0.1017 0.252683,-0.264 0.293256,-0.488 l 0.592265,0 0,3.9626 -0.805145,0 0,-2.7992"
       style="fill:#231f20;fill-opacity:1;fill-rule:nonzero;stroke:none"
       id="path73002-5-6-3"
       inkscape:connector-curvature="0" />
    <path
       d="m 42.313528,1033.0286 c 0.02568,-0.2542 0.06728,-0.4791 0.147912,-0.6751 0.08371,-0.1962 0.207488,-0.3513 0.372862,-0.4704 0.164347,-0.1166 0.396487,-0.1757 0.690514,-0.1757 0.242411,0 0.442709,0.031 0.601355,0.1043 0.158697,0.068 0.285553,0.1792 0.380566,0.3323 0.09655,0.1525 0.161779,0.3513 0.201838,0.5956 0.04109,0.245 0.05649,0.542 0.05649,0.8935 0,0.2758 -0.02568,0.5397 -0.02568,0.7939 -0.02568,0.2532 -0.06728,0.4782 -0.15048,0.6741 -0.08371,0.1962 -0.204406,0.3503 -0.371835,0.4622 -0.164347,0.112 -0.396487,0.168 -0.69077,0.168 -0.239844,0 -0.439114,-0.031 -0.599198,-0.095 -0.161779,-0.063 -0.287607,-0.1711 -0.383134,-0.3246 -0.09399,-0.1536 -0.161779,-0.3513 -0.201839,-0.5968 -0.03595,-0.244 -0.05649,-0.5419 -0.05649,-0.8913 0,-0.2768 0.02568,-0.5419 0.02568,-0.795 z m 0.796004,1.5822 c 0.02568,0.1582 0.03595,0.2845 0.06728,0.3749 0.03595,0.091 0.08063,0.1536 0.134559,0.188 0.05649,0.031 0.126342,0.051 0.212624,0.051 0.08885,0 0.161779,-0.026 0.218273,-0.065 0.05649,-0.041 0.09963,-0.1166 0.131991,-0.2183 0.03082,-0.1027 0.05393,-0.2398 0.06985,-0.4119 0.02568,-0.171 0.02568,-0.3841 0.02568,-0.6382 l 0,-0.4309 c 0,-0.2511 -0.02568,-0.4555 -0.02568,-0.6147 -0.02568,-0.1582 -0.03595,-0.2835 -0.06985,-0.3739 -0.03595,-0.092 -0.07806,-0.1546 -0.134559,-0.188 -0.05393,-0.031 -0.126342,-0.051 -0.212624,-0.051 -0.08885,0 -0.161779,0.02 -0.218273,0.063 -0.05649,0.041 -0.09963,0.1165 -0.131991,0.2193 -0.03082,0.1016 -0.05393,0.2398 -0.06728,0.4108 -0.02568,0.1721 -0.02568,0.3842 -0.02568,0.6382 l 0,0.4325 c 0,0.2501 0.02568,0.4545 0.02568,0.6136"
       style="fill:#231f20;fill-opacity:1;fill-rule:nonzero;stroke:none"
       id="path73004-6-0-4"
       inkscape:connector-curvature="0" />
    <path
       d="m 45.223443,1033.0286 c 0.02568,-0.2542 0.06728,-0.4791 0.15048,-0.6751 0.08371,-0.1962 0.204406,-0.3513 0.371835,-0.4704 0.164347,-0.1166 0.396487,-0.1757 0.691027,-0.1757 0.242412,0 0.443223,0.031 0.602177,0.1043 0.158697,0.068 0.284526,0.1792 0.380052,0.3323 0.09399,0.1525 0.161779,0.3513 0.204407,0.5956 0.03595,0.245 0.05649,0.542 0.05649,0.8935 0,0.2758 -0.02568,0.5397 -0.02568,0.7939 -0.02568,0.2532 -0.06728,0.4782 -0.15048,0.6741 -0.08628,0.1962 -0.207488,0.3503 -0.371835,0.4622 -0.166915,0.112 -0.397514,0.168 -0.692055,0.168 -0.239843,0 -0.438087,-0.031 -0.597914,-0.095 -0.161779,-0.063 -0.288634,-0.1711 -0.383134,-0.3246 -0.09655,-0.1536 -0.161778,-0.3513 -0.204406,-0.5968 -0.03595,-0.244 -0.05649,-0.5419 -0.05649,-0.8913 0,-0.2768 0.02568,-0.5419 0.02568,-0.795 z m 0.796004,1.5822 c 0.02568,0.1582 0.03595,0.2845 0.06985,0.3749 0.03595,0.091 0.07806,0.1536 0.134559,0.188 0.05393,0.031 0.129423,0.051 0.212624,0.051 0.08885,0 0.161779,-0.026 0.220841,-0.065 0.05649,-0.041 0.09964,-0.1166 0.131991,-0.2183 0.03081,-0.1027 0.05393,-0.2398 0.06728,-0.4119 0.02568,-0.171 0.02568,-0.3841 0.02568,-0.6382 l 0,-0.4309 c 0,-0.2511 -0.02568,-0.4555 -0.02568,-0.6147 -0.02568,-0.1582 -0.03595,-0.2835 -0.06985,-0.3739 -0.03595,-0.092 -0.07807,-0.1546 -0.134559,-0.188 -0.05649,-0.031 -0.126342,-0.051 -0.212624,-0.051 -0.08885,0 -0.161779,0.02 -0.218273,0.063 -0.05393,0.041 -0.09655,0.1165 -0.129423,0.2193 -0.03081,0.1016 -0.05649,0.2398 -0.06985,0.4108 -0.02568,0.1721 -0.02568,0.3842 -0.02568,0.6382 l 0,0.4325 c 0,0.2501 0.02568,0.4545 0.02568,0.6136"
       style="fill:#231f20;fill-opacity:1;fill-rule:nonzero;stroke:none"
       id="path73006-5-2-5"
       inkscape:connector-curvature="0" />
    <path
       d="m 14.069495,1019.2475 c 0,-0.1746 0.02568,-0.3405 0.05393,-0.4925 0.03595,-0.1536 0.08885,-0.2989 0.161779,-0.4365 0.07241,-0.1372 0.161779,-0.2733 0.274253,-0.4053 0.110421,-0.1335 0.236763,-0.2665 0.381593,-0.4011 l 0.323558,-0.3025 c 0.08885,-0.079 0.161779,-0.151 0.215705,-0.2182 0.05393,-0.067 0.09655,-0.1346 0.126342,-0.2019 0.03081,-0.067 0.05136,-0.1402 0.05906,-0.2193 0.02568,-0.077 0.02568,-0.1669 0.02568,-0.2676 0,-0.3292 -0.131991,-0.4925 -0.391864,-0.4925 -0.09963,0 -0.180268,0.021 -0.236762,0.061 -0.05649,0.041 -0.102204,0.098 -0.131991,0.1695 -0.03082,0.07 -0.05393,0.1525 -0.06163,0.246 -0.02568,0.094 -0.02568,0.1926 -0.02568,0.2969 l -0.769348,0 0,-0.1526 c 0,-0.3692 0.09963,-0.6516 0.29531,-0.8487 0.199271,-0.1982 0.508448,-0.2968 0.93385,-0.2968 0.402136,0 0.699861,0.093 0.894766,0.2799 0.191053,0.1859 0.289661,0.4524 0.289661,0.7994 0,0.1264 -0.02568,0.245 -0.03595,0.3549 -0.02568,0.1094 -0.05649,0.2162 -0.104771,0.3169 -0.05136,0.1 -0.112988,0.1972 -0.191053,0.2922 -0.07807,0.096 -0.174619,0.1936 -0.285553,0.2948 l -0.447845,0.4129 c -0.118124,0.1074 -0.212624,0.2137 -0.279903,0.3159 -0.06728,0.1027 -0.110421,0.1916 -0.129423,0.2655 l 1.499357,0 0,0.6304 -2.441013,0"
       style="fill:#231f20;fill-opacity:1;fill-rule:nonzero;stroke:none"
       id="path73008-4-8-1"
       inkscape:connector-curvature="0" />
    <path
       d="m 16.784505,1016.6062 c 0.02568,-0.2543 0.06728,-0.4792 0.15048,-0.6752 0.08371,-0.1962 0.207488,-0.3513 0.371835,-0.4705 0.164347,-0.1166 0.396487,-0.1756 0.691079,-0.1756 0.242411,0 0.443223,0.031 0.601355,0.1042 0.161779,0.068 0.285553,0.1793 0.380566,0.3323 0.09399,0.1526 0.161779,0.3513 0.201838,0.5957 0.04109,0.245 0.05649,0.5419 0.05649,0.8935 0,0.2758 -0.02568,0.5397 -0.02568,0.7927 -0.02568,0.2543 -0.06728,0.4802 -0.15048,0.6752 -0.08371,0.1962 -0.207488,0.3502 -0.371835,0.4622 -0.164346,0.112 -0.396486,0.168 -0.690719,0.168 -0.239843,0 -0.439114,-0.031 -0.597863,-0.096 -0.161779,-0.063 -0.289147,-0.172 -0.38416,-0.3246 -0.09399,-0.1535 -0.161779,-0.3513 -0.201839,-0.5957 -0.03595,-0.2449 -0.05649,-0.543 -0.05649,-0.8924 0,-0.2778 0.02568,-0.5419 0.02568,-0.7949 z m 0.796261,1.5821 c 0.02568,0.1582 0.03595,0.2845 0.06728,0.3749 0.03595,0.091 0.08063,0.1546 0.134559,0.188 0.0565,0.031 0.126342,0.051 0.212624,0.051 0.08885,0 0.161779,-0.026 0.218273,-0.065 0.05649,-0.041 0.09963,-0.1156 0.131991,-0.2183 0.03082,-0.1027 0.05393,-0.2398 0.06728,-0.4119 0.02568,-0.171 0.02568,-0.3841 0.02568,-0.6381 l 0,-0.432 c 0,-0.2501 -0.02568,-0.4545 -0.02568,-0.6125 -0.02568,-0.1592 -0.03595,-0.2845 -0.06985,-0.3749 -0.03595,-0.092 -0.07806,-0.1546 -0.131991,-0.1885 -0.05649,-0.031 -0.128909,-0.051 -0.212623,-0.051 -0.08885,0 -0.161779,0.02 -0.218274,0.064 -0.05649,0.041 -0.102203,0.1165 -0.131991,0.2193 -0.03082,0.1027 -0.05136,0.2383 -0.06728,0.4108 -0.02568,0.1721 -0.02568,0.3852 -0.02568,0.6383 l 0,0.4324 c 0,0.2511 0.02568,0.4545 0.02568,0.6136"
       style="fill:#231f20;fill-opacity:1;fill-rule:nonzero;stroke:none"
       id="path73010-1-5-3"
       inkscape:connector-curvature="0" />
    <path
       d="m 49.107575,1017.4874 c 0.112989,-0.1782 0.278876,-0.2897 0.503313,-0.3349 l 0,-0.015 c -0.104772,-0.026 -0.196703,-0.066 -0.269118,-0.1222 -0.06985,-0.057 -0.131991,-0.1197 -0.174619,-0.1916 -0.04622,-0.07 -0.07806,-0.1453 -0.09399,-0.2239 -0.02568,-0.079 -0.02568,-0.1536 -0.02568,-0.225 0,-0.3872 0.102203,-0.6673 0.310205,-0.8375 0.207488,-0.17 0.4915,-0.2552 0.853319,-0.2552 0.361563,0 0.646089,0.085 0.853371,0.2552 0.204407,0.17 0.310205,0.4499 0.310205,0.8375 0,0.071 -0.02568,0.1464 -0.03082,0.225 -0.02568,0.079 -0.05393,0.1536 -0.09963,0.2239 -0.04109,0.071 -0.102203,0.1341 -0.174619,0.1916 -0.07241,0.056 -0.161779,0.096 -0.26655,0.1222 l 0,0.015 c 0.223409,0.046 0.392892,0.1567 0.504853,0.3349 0.113502,0.1792 0.169483,0.3929 0.169483,0.6427 0,0.1155 -0.02568,0.2419 -0.04109,0.3795 -0.02568,0.1377 -0.08628,0.2666 -0.174618,0.3852 -0.08885,0.1197 -0.218274,0.2183 -0.384161,0.2969 -0.166915,0.077 -0.387242,0.1176 -0.664886,0.1176 -0.277849,0 -0.498176,-0.041 -0.665142,-0.1176 -0.166915,-0.079 -0.294284,-0.1772 -0.383648,-0.2969 -0.08885,-0.1186 -0.147912,-0.2475 -0.174618,-0.3852 -0.03081,-0.1376 -0.04109,-0.264 -0.04109,-0.3795 0,-0.2496 0.05393,-0.4633 0.166915,-0.6427 z m 0.657593,0.898 c 0.02568,0.084 0.03595,0.1556 0.07242,0.2183 0.03595,0.062 0.08371,0.1093 0.142776,0.1443 0.06214,0.036 0.13764,0.054 0.225977,0.054 0.08885,0 0.164347,-0.021 0.225977,-0.054 0.06214,-0.031 0.11042,-0.083 0.142776,-0.1443 0.03595,-0.063 0.05958,-0.1346 0.07241,-0.2183 0.02568,-0.085 0.02568,-0.1736 0.02568,-0.2666 0,-0.097 -0.02568,-0.1874 -0.02568,-0.2675 -0.02568,-0.083 -0.03595,-0.1546 -0.07241,-0.2163 -0.03595,-0.062 -0.08371,-0.1094 -0.142776,-0.1443 -0.06214,-0.036 -0.134559,-0.054 -0.225977,-0.054 -0.08885,0 -0.164347,0.015 -0.225977,0.054 -0.06214,0.031 -0.110421,0.083 -0.142776,0.1443 -0.03595,0.062 -0.06214,0.1331 -0.07242,0.2163 -0.02568,0.081 -0.02568,0.17 -0.02568,0.2675 0,0.093 0.02568,0.1813 0.02568,0.2666 z m 0.15613,-1.6079 c 0.06985,0.089 0.166914,0.1346 0.286066,0.1346 0.118638,0 0.215705,-0.046 0.28658,-0.1346 0.06985,-0.091 0.107852,-0.2311 0.107852,-0.4222 0,-0.3641 -0.131991,-0.5452 -0.394432,-0.5452 -0.260901,0 -0.392892,0.1813 -0.392892,0.5452 0,0.1911 0.03595,0.3313 0.104771,0.4222"
       style="fill:#231f20;fill-opacity:1;fill-rule:nonzero;stroke:none"
       id="path73012-3-3-1"
       inkscape:connector-curvature="0" />
    <path
       d="m 51.457889,1016.6062 c 0.02568,-0.2543 0.06728,-0.4792 0.147913,-0.6752 0.08628,-0.1962 0.207487,-0.3513 0.372861,-0.4705 0.164347,-0.1166 0.396487,-0.1756 0.690976,-0.1756 0.242412,0 0.443223,0.031 0.601356,0.1042 0.158697,0.068 0.285552,0.1793 0.380565,0.3323 0.09399,0.1526 0.161779,0.3513 0.201839,0.5957 0.03595,0.245 0.05649,0.5419 0.05649,0.8935 0,0.2758 -0.02568,0.5397 -0.02568,0.7927 -0.02568,0.2543 -0.06728,0.4802 -0.15048,0.6752 -0.08628,0.1962 -0.207488,0.3502 -0.373376,0.4622 -0.164347,0.112 -0.396487,0.168 -0.690719,0.168 -0.239843,0 -0.437573,-0.031 -0.597863,-0.096 -0.161779,-0.063 -0.289148,-0.172 -0.383133,-0.3246 -0.09707,-0.1535 -0.161779,-0.3513 -0.201839,-0.5957 -0.03595,-0.2449 -0.05649,-0.543 -0.05649,-0.8924 0,-0.2778 0.02568,-0.5419 0.02568,-0.7949 z m 0.79621,1.5821 c 0.02568,0.1582 0.03595,0.2845 0.06985,0.3749 0.03595,0.091 0.07807,0.1546 0.134559,0.188 0.05649,0.031 0.126342,0.051 0.212624,0.051 0.08885,0 0.161779,-0.026 0.218273,-0.065 0.05393,-0.041 0.09964,-0.1156 0.131991,-0.2183 0.03081,-0.1027 0.05393,-0.2398 0.06728,-0.4119 0.02568,-0.171 0.02568,-0.3841 0.02568,-0.6381 l 0,-0.432 c 0,-0.2501 -0.02568,-0.4545 -0.02568,-0.6125 -0.02568,-0.1592 -0.03595,-0.2845 -0.06985,-0.3749 -0.03595,-0.092 -0.07807,-0.1546 -0.134559,-0.1885 -0.05393,-0.031 -0.126342,-0.051 -0.212624,-0.051 -0.08885,0 -0.161779,0.02 -0.218273,0.064 -0.05649,0.041 -0.09963,0.1165 -0.131991,0.2193 -0.03082,0.1027 -0.05393,0.2383 -0.06985,0.4108 -0.02568,0.1721 -0.02568,0.3852 -0.02568,0.6383 l 0,0.4324 c 0,0.2511 0.02568,0.4545 0.02568,0.6136"
       style="fill:#231f20;fill-opacity:1;fill-rule:nonzero;stroke:none"
       id="path73014-6-8-4"
       inkscape:connector-curvature="0" />
    <path
       d="m 23.193365,1000.1691 0.8299,0 0,2.5104 0.380566,0 0,0.6303 -0.380566,0 0,0.8219 -0.73463,0 0,-0.8219 -1.410559,0 0,-0.6605 1.315289,-2.4802 z m 0.08628,1.0056 -0.772841,1.5048 0.783832,0 0,-1.5048 -0.02568,0"
       style="fill:#231f20;fill-opacity:1;fill-rule:nonzero;stroke:none"
       id="path73016-6-5-3"
       inkscape:connector-curvature="0" />
    <path
       d="m 24.622463,1001.4904 c 0.02568,-0.2543 0.06728,-0.4792 0.150481,-0.6752 0.08371,-0.1962 0.204406,-0.3513 0.371834,-0.4704 0.164347,-0.1166 0.396487,-0.1762 0.690771,-0.1762 0.242411,0 0.443736,0.031 0.601355,0.1043 0.161779,0.068 0.285553,0.1792 0.381079,0.3323 0.09399,0.1525 0.161779,0.3512 0.201839,0.5956 0.03595,0.245 0.05649,0.5419 0.05649,0.8935 0,0.2758 -0.02568,0.5397 -0.02568,0.7928 -0.02568,0.2542 -0.06728,0.4802 -0.15048,0.6752 -0.08371,0.1962 -0.204407,0.3502 -0.371835,0.4622 -0.164347,0.112 -0.395973,0.1679 -0.690462,0.1679 -0.239844,0 -0.439114,-0.031 -0.59812,-0.096 -0.161779,-0.064 -0.288634,-0.172 -0.384161,-0.3246 -0.09655,-0.1535 -0.161779,-0.3513 -0.201838,-0.5957 -0.03595,-0.245 -0.0565,-0.543 -0.0565,-0.8924 0,-0.2778 0.02568,-0.5419 0.02568,-0.7949 z m 0.796004,1.5821 c 0.02568,0.1582 0.03595,0.2845 0.06985,0.3749 0.03595,0.091 0.08063,0.1546 0.134559,0.188 0.05649,0.031 0.126341,0.051 0.212623,0.051 0.08885,0 0.164347,-0.026 0.218273,-0.065 0.05649,-0.041 0.09964,-0.1156 0.131992,-0.2183 0.03082,-0.1027 0.05393,-0.2398 0.06728,-0.4119 0.02568,-0.171 0.02568,-0.3841 0.02568,-0.6382 l 0,-0.4319 c 0,-0.2501 -0.02568,-0.4545 -0.02568,-0.6125 -0.02568,-0.1592 -0.03595,-0.2845 -0.06985,-0.3749 -0.03595,-0.093 -0.07806,-0.1546 -0.131991,-0.188 -0.0565,-0.031 -0.129424,-0.051 -0.212624,-0.051 -0.08885,0 -0.161779,0.02 -0.21776,0.063 -0.05649,0.041 -0.09963,0.116 -0.131991,0.2193 -0.03082,0.1027 -0.05393,0.2388 -0.06728,0.4108 -0.02568,0.1721 -0.02568,0.3852 -0.02568,0.6383 l 0,0.4324 c 0,0.2511 0.02568,0.4545 0.02568,0.6136"
       style="fill:#231f20;fill-opacity:1;fill-rule:nonzero;stroke:none"
       id="path73018-4-2-5"
       inkscape:connector-curvature="0" />
    <path
       d="m 41.936146,1000.8174 c -0.05393,-0.082 -0.147912,-0.1232 -0.283498,-0.1232 -0.105285,0 -0.188485,0.026 -0.255765,0.075 -0.06471,0.051 -0.11607,0.1207 -0.147912,0.2106 -0.03595,0.091 -0.05958,0.1972 -0.06985,0.3215 -0.02568,0.1233 -0.02568,0.2578 -0.02568,0.4042 l 0,0.1972 0.02568,0 c 0.06728,-0.1047 0.161779,-0.1879 0.287607,-0.2501 0.126341,-0.063 0.277335,-0.093 0.455549,-0.093 0.174618,0 0.324585,0.031 0.447845,0.091 0.123774,0.063 0.220841,0.1479 0.299933,0.2588 0.0755,0.1084 0.131991,0.2399 0.166915,0.3898 0.03595,0.151 0.05136,0.3159 0.05136,0.4961 0,0.4582 -0.09963,0.8062 -0.304555,1.0413 -0.204407,0.2373 -0.528735,0.3565 -0.976375,0.3565 -0.275794,0 -0.496122,-0.046 -0.659493,-0.1454 -0.164347,-0.098 -0.290175,-0.2311 -0.378511,-0.3995 -0.08628,-0.17 -0.145344,-0.3673 -0.169483,-0.5912 -0.02568,-0.224 -0.03595,-0.4571 -0.03595,-0.6998 0,-0.2799 0.02568,-0.551 0.02568,-0.8129 0.02568,-0.264 0.06728,-0.4972 0.147912,-0.6999 0.08628,-0.2038 0.215705,-0.3682 0.394432,-0.4904 0.1777,-0.1233 0.431924,-0.1849 0.760207,-0.1849 0.142776,0 0.27939,0.015 0.412408,0.051 0.131991,0.031 0.247547,0.089 0.34821,0.167 0.09963,0.08 0.182836,0.1823 0.244979,0.3112 0.06214,0.1289 0.09655,0.2866 0.09964,0.4771 l -0.770428,0 c 0,-0.1556 -0.02568,-0.2753 -0.08063,-0.3569 z m -0.72441,2.3995 c 0.02568,0.097 0.03595,0.1788 0.06471,0.2476 0.03081,0.069 0.07806,0.1232 0.131991,0.1623 0.05958,0.041 0.134559,0.06 0.228545,0.06 0.09963,0 0.174618,-0.021 0.234194,-0.06 0.05649,-0.041 0.102203,-0.094 0.131991,-0.1644 0.03081,-0.07 0.05136,-0.1546 0.05958,-0.2485 0.02568,-0.096 0.02568,-0.1983 0.02568,-0.3102 0,-0.2687 -0.03595,-0.4602 -0.09964,-0.5756 -0.06728,-0.1155 -0.180268,-0.1736 -0.338452,-0.1736 -0.161779,0 -0.275281,0.058 -0.342561,0.1736 -0.06728,0.1156 -0.09963,0.3066 -0.09963,0.5756 0,0.1119 0.02568,0.2162 0.02568,0.3132"
       style="fill:#231f20;fill-opacity:1;fill-rule:nonzero;stroke:none"
       id="path73020-6-1-2"
       inkscape:connector-curvature="0" />
    <path
       d="m 43.209115,1001.4904 c 0.02568,-0.2543 0.06728,-0.4792 0.147913,-0.6752 0.08371,-0.1962 0.204406,-0.3513 0.372348,-0.4704 0.164347,-0.1166 0.396487,-0.1762 0.690976,-0.1762 0.242411,0 0.443223,0.031 0.601407,0.1043 0.158697,0.068 0.285552,0.1792 0.380565,0.3323 0.09399,0.1525 0.161779,0.3512 0.201839,0.5956 0.04109,0.245 0.05649,0.5419 0.05649,0.8935 0,0.2758 -0.02568,0.5397 -0.02568,0.7928 -0.02568,0.2542 -0.06985,0.4802 -0.15048,0.6752 -0.08372,0.1962 -0.207488,0.3502 -0.373376,0.4622 -0.164347,0.112 -0.396487,0.1679 -0.690719,0.1679 -0.239844,0 -0.438601,-0.031 -0.597863,-0.096 -0.161779,-0.064 -0.289148,-0.172 -0.384161,-0.3246 -0.09399,-0.1535 -0.161779,-0.3513 -0.201838,-0.5957 -0.04109,-0.245 -0.05649,-0.543 -0.05649,-0.8924 0,-0.2778 0.02568,-0.5419 0.02568,-0.7949 z m 0.796261,1.5821 c 0.02568,0.1582 0.03595,0.2845 0.06985,0.3749 0.03595,0.091 0.08063,0.1546 0.134559,0.188 0.0565,0.031 0.126342,0.051 0.212624,0.051 0.08885,0 0.161779,-0.026 0.220841,-0.065 0.05649,-0.041 0.09963,-0.1156 0.131991,-0.2183 0.03081,-0.1027 0.05393,-0.2398 0.06728,-0.4119 0.02568,-0.171 0.02568,-0.3841 0.02568,-0.6382 l 0,-0.4319 c 0,-0.2501 -0.02568,-0.4545 -0.02568,-0.6125 -0.02568,-0.1592 -0.03595,-0.2845 -0.06985,-0.3749 -0.03595,-0.093 -0.07806,-0.1546 -0.131991,-0.188 -0.05649,-0.031 -0.126341,-0.051 -0.212623,-0.051 -0.08885,0 -0.161779,0.02 -0.218274,0.063 -0.05649,0.041 -0.09963,0.116 -0.131991,0.2193 -0.03081,0.1027 -0.05136,0.2388 -0.06728,0.4108 -0.02568,0.1721 -0.02568,0.3852 -0.02568,0.6383 l 0,0.4324 c 0,0.2511 0.02568,0.4545 0.02568,0.6136"
       style="fill:#231f20;fill-opacity:1;fill-rule:nonzero;stroke:none"
       id="path73022-2-4-9"
       inkscape:connector-curvature="0" />
    <path
       d="m 34.255088,992.91691 0,2.39166"
       style="fill:none;stroke:#231f20;stroke-width:1.11968935;stroke-linecap:round;stroke-linejoin:round;stroke-miterlimit:4;stroke-dasharray:none;stroke-opacity:1"
       id="path73024-2-3-9"
       inkscape:connector-curvature="0" />
    <path
       d="m 21.910381,996.21443 1.192542,2.07251"
       style="fill:none;stroke:#231f20;stroke-width:1.11968935;stroke-linecap:round;stroke-linejoin:round;stroke-miterlimit:4;stroke-dasharray:none;stroke-opacity:1"
       id="path73026-2-1-1"
       inkscape:connector-curvature="0" />
    <path
       d="m 12.853277,1005.2268 2.066816,1.2037"
       style="fill:none;stroke:#231f20;stroke-width:1.11968935;stroke-linecap:round;stroke-linejoin:round;stroke-miterlimit:4;stroke-dasharray:none;stroke-opacity:1"
       id="path73028-8-3-1"
       inkscape:connector-curvature="0" />
    <path
       d="m 9.4975714,1017.5568 2.3914516,0.015"
       style="fill:none;stroke:#231f20;stroke-width:1.11968935;stroke-linecap:round;stroke-linejoin:round;stroke-miterlimit:4;stroke-dasharray:none;stroke-opacity:1"
       id="path73030-8-6-2"
       inkscape:connector-curvature="0" />
    <path
       d="m 12.735615,1029.917 2.08058,-1.1813"
       style="fill:none;stroke:#231f20;stroke-width:1.11968935;stroke-linecap:round;stroke-linejoin:round;stroke-miterlimit:4;stroke-dasharray:none;stroke-opacity:1"
       id="path73032-3-0-6"
       inkscape:connector-curvature="0" />
    <path
       d="m 21.706591,1039.0168 1.214061,-2.0603"
       style="fill:none;stroke:#231f20;stroke-width:1.11968935;stroke-linecap:round;stroke-linejoin:round;stroke-miterlimit:4;stroke-dasharray:none;stroke-opacity:1"
       id="path73034-3-6-4"
       inkscape:connector-curvature="0" />
    <path
       d="m 46.59954,996.21443 -1.192234,2.07251"
       style="fill:none;stroke:#231f20;stroke-width:1.11968935;stroke-linecap:round;stroke-linejoin:round;stroke-miterlimit:4;stroke-dasharray:none;stroke-opacity:1"
       id="path73036-2-3-3"
       inkscape:connector-curvature="0" />
    <path
       d="m 56.109794,1005.6653 -2.066816,1.2037"
       style="fill:none;stroke:#231f20;stroke-width:1.11968935;stroke-linecap:round;stroke-linejoin:round;stroke-miterlimit:4;stroke-dasharray:none;stroke-opacity:1"
       id="path73038-2-6-5"
       inkscape:connector-curvature="0" />
    <path
       d="m 59.012349,1017.5568 -2.391452,0.015"
       style="fill:none;stroke:#231f20;stroke-width:1.11968935;stroke-linecap:round;stroke-linejoin:round;stroke-miterlimit:4;stroke-dasharray:none;stroke-opacity:1"
       id="path73040-3-9-6"
       inkscape:connector-curvature="0" />
    <path
       d="m 55.774305,1029.917 -2.080323,-1.1813"
       style="fill:none;stroke:#231f20;stroke-width:1.11968935;stroke-linecap:round;stroke-linejoin:round;stroke-miterlimit:4;stroke-dasharray:none;stroke-opacity:1"
       id="path73042-9-9-5"
       inkscape:connector-curvature="0" />
    <path
       d="m 46.80333,1039.0168 -1.213753,-2.0603"
       style="fill:none;stroke:#231f20;stroke-width:1.11968935;stroke-linecap:round;stroke-linejoin:round;stroke-miterlimit:4;stroke-dasharray:none;stroke-opacity:1"
       id="path73044-8-6-7"
       inkscape:connector-curvature="0" />
  </g>
</svg>
